{
  "accessors": [
    {
      "name": "Plane-Mesh_0_positions",
      "componentType": 5126,
      "count": 16034,
      "min": [
        -0.5367249846458435,
        0,
        -0.9998639822006226
      ],
      "max": [
        1.8369510173797607,
        3.4814391136169434,
        0.9998639822006226
      ],
      "type": "VEC3",
      "bufferView": 0,
      "byteOffset": 0
    },
    {
      "name": "Plane-Mesh_0_normals",
      "componentType": 5126,
      "count": 16034,
      "min": [
        -0.9979060888290405,
        -1,
        -1
      ],
      "max": [
        0.9999995827674866,
        1,
        1
      ],
      "type": "VEC3",
      "bufferView": 1,
      "byteOffset": 0
    },
    {
      "name": "Plane-Mesh_0_indices",
      "componentType": 5123,
      "count": 96183,
      "min": [
        0
      ],
      "max": [
        16033
      ],
      "type": "SCALAR",
      "bufferView": 2,
      "byteOffset": 0
    }
  ],
  "asset": {
    "generator": "obj2gltf",
    "version": "2.0"
  },
  "buffers": [
    {
      "name": "stul",
      "byteLength": 577184,
      "uri": "data:application/octet-stream;base64,"
    }
  ],
  "bufferViews": [
    {
      "name": "bufferView_0",
      "buffer": 0,
      "byteLength": 192408,
      "byteOffset": 0,
      "byteStride": 12,
      "target": 34962
    },
    {
      "name": "bufferView_1",
      "buffer": 0,
      "byteLength": 192408,
      "byteOffset": 192408,
      "byteStride": 12,
      "target": 34962
    },
    {
      "name": "bufferView_2",
      "buffer": 0,
      "byteLength": 192368,
      "byteOffset": 384816,
      "target": 34963
    }
  ],
  "materials": [
    {
      "name": "Material",
      "pbrMetallicRoughness": {
        "baseColorFactor": [
          0.5,
          0.5,
          0.5,
          1
        ],
        "metallicFactor": 0,
        "roughnessFactor": 1
      },
      "emissiveFactor": [
        0,
        0,
        0
      ],
      "alphaMode": "OPAQUE",
      "doubleSided": false
    }
  ],
  "meshes": [
    {
      "name": "Plane-Mesh",
      "primitives": [
        {
          "attributes": {
            "POSITION": 0,
            "NORMAL": 1
          },
          "indices": 2,
          "material": 0,
          "mode": 4
        }
      ]
    }
  ],
  "nodes": [
    {
      "name": "Plane",
      "mesh": 0
    }
  ],
  "scene": 0,
  "scenes": [
    {
      "nodes": [
        0
      ]
    }
  ]
}
